<?xml version="1.0" encoding="utf-8"?>
<!-- Generator: Adobe Illustrator 23.0.6, SVG Export Plug-In . SVG Version: 6.00 Build 0)  -->
<svg version="1.1" id="Layer_1" xmlns="http://www.w3.org/2000/svg" xmlns:xlink="http://www.w3.org/1999/xlink" x="0px" y="0px"
	 viewBox="0 0 742.9 544.7" style="enable-background:new 0 0 742.9 544.7;" xml:space="preserve">
<style type="text/css">
	.st0{opacity:0.39;}
	.st1{fill:none;stroke:#9284CE;stroke-width:6;stroke-linecap:round;stroke-linejoin:round;stroke-miterlimit:10;}
	.st2{opacity:0.4;}
	.st3{fill:none;stroke:#FF6F6C;stroke-width:3.6376;stroke-linecap:round;stroke-linejoin:round;stroke-miterlimit:10;}
	.st4{fill:none;stroke:#FFA65C;stroke-width:6;stroke-linecap:round;stroke-linejoin:round;stroke-miterlimit:10;}
	
		.st5{opacity:0.45;fill:none;stroke:#FFA65C;stroke-width:4;stroke-linecap:round;stroke-linejoin:round;stroke-miterlimit:10;enable-background:new    ;}
	.st6{opacity:0.24;}
	.st7{fill:none;stroke:#34323A;stroke-width:9.3261;stroke-linecap:round;stroke-linejoin:round;stroke-miterlimit:10;}
	.st8{fill:none;stroke:#FFA64D;stroke-width:3;stroke-linecap:round;stroke-linejoin:round;stroke-miterlimit:10;}
	.st9{opacity:0.57;}
	.st10{fill:none;stroke:#E24D59;stroke-width:4;stroke-linecap:square;stroke-miterlimit:10;}
	.st11{fill:none;stroke:#AE8DCE;stroke-width:3.1048;stroke-linecap:round;stroke-linejoin:round;stroke-miterlimit:10;}
	.st12{fill:none;stroke:#34323A;stroke-width:12;stroke-linecap:round;stroke-linejoin:round;stroke-miterlimit:10;}
	.st13{fill:#DBA44A;}
	.st14{fill:none;stroke:#34323A;stroke-width:8;stroke-linecap:round;stroke-linejoin:round;stroke-miterlimit:10;}
	.st15{fill:#FECB5B;}
	.st16{fill:#EF4C4E;}
	.st17{opacity:0.46;fill:#F4E598;enable-background:new    ;}
	.st18{opacity:0.2;fill:#4C1C1F;enable-background:new    ;}
	.st19{fill:#FFFFFF;}
	.st20{fill:none;stroke:#34323A;stroke-width:6;stroke-linecap:round;stroke-linejoin:round;stroke-miterlimit:10;}
	.st21{fill:#EEF2FA;}
	.st22{fill:none;stroke:#34323A;stroke-width:2;stroke-linecap:round;stroke-linejoin:round;stroke-miterlimit:10;}
	.st23{fill:#6FBB57;}
	.st24{fill:#579B3E;}
	.st25{opacity:0.42;fill:#FFFFFF;enable-background:new    ;}
	.st26{opacity:0.63;fill:#EA952F;enable-background:new    ;}
	.st27{fill:#F7B45C;}
	.st28{fill:#FFCC66;}
	.st29{opacity:0.6;fill:#F7B45C;enable-background:new    ;}
	.st30{fill:#6B9EC0;}
	.st31{fill:#5187A5;}
	.st32{opacity:0.62;}
	.st33{fill:#DD3A43;}
	.st34{fill:#FF8D93;}
</style>
<g id="XMLID_41_">
	<g id="XMLID_354_" class="st0">
		<line id="XMLID_356_" class="st1" x1="692.8" y1="345.5" x2="704.8" y2="345.5"/>
		<line id="XMLID_355_" class="st1" x1="698.8" y1="339.5" x2="698.8" y2="351.5"/>
	</g>
	<g id="XMLID_358_" class="st2">
		<line id="XMLID_360_" class="st1" x1="363.7" y1="49.2" x2="375.7" y2="49.2"/>
		<line id="XMLID_359_" class="st1" x1="369.7" y1="43.2" x2="369.7" y2="55.2"/>
	</g>
	<circle id="XMLID_353_" class="st3" cx="554.7" cy="127.3" r="8.7"/>
	<circle id="XMLID_352_" class="st3" cx="9.1" cy="239.2" r="3.8"/>
	<circle id="XMLID_351_" class="st4" cx="663.8" cy="121.4" r="7.3"/>
	<circle id="XMLID_361_" class="st5" cx="62.1" cy="436.9" r="7.3"/>
	<g id="XMLID_348_">
		<line id="XMLID_350_" class="st3" x1="290.8" y1="11.8" x2="300" y2="11.8"/>
		<line id="XMLID_349_" class="st3" x1="295.4" y1="7.2" x2="295.4" y2="16.4"/>
	</g>
	<g id="XMLID_345_" class="st6">
		<line id="XMLID_347_" class="st7" x1="164.1" y1="311.7" x2="186.2" y2="311.7"/>
		<line id="XMLID_346_" class="st7" x1="175.2" y1="300.6" x2="175.2" y2="322.8"/>
	</g>
	<g id="XMLID_330_">
		<g id="XMLID_338_">
			<g id="XMLID_342_">
				<line id="XMLID_344_" class="st8" x1="663.8" y1="261.9" x2="663.8" y2="265.4"/>
				<line id="XMLID_343_" class="st8" x1="663.8" y1="275.4" x2="663.8" y2="278.9"/>
			</g>
			<g id="XMLID_339_">
				<line id="XMLID_341_" class="st8" x1="672.3" y1="270.4" x2="668.9" y2="270.4"/>
				<line id="XMLID_340_" class="st8" x1="658.8" y1="270.4" x2="655.3" y2="270.4"/>
			</g>
		</g>
		<g id="XMLID_331_">
			<g id="XMLID_335_">
				<line id="XMLID_337_" class="st8" x1="669.9" y1="264.4" x2="667.4" y2="266.9"/>
				<line id="XMLID_336_" class="st8" x1="660.3" y1="274" x2="657.8" y2="276.4"/>
			</g>
			<g id="XMLID_332_">
				<line id="XMLID_334_" class="st8" x1="669.9" y1="276.4" x2="667.4" y2="274"/>
				<line id="XMLID_333_" class="st8" x1="660.3" y1="266.9" x2="657.8" y2="264.4"/>
			</g>
		</g>
	</g>
	<g id="XMLID_315_" class="st9">
		<g id="XMLID_323_">
			<g id="XMLID_327_">
				<line id="XMLID_329_" class="st10" x1="506.5" y1="11.8" x2="506.5" y2="20.4"/>
				<line id="XMLID_328_" class="st10" x1="506.5" y1="44.9" x2="506.5" y2="53.4"/>
			</g>
			<g id="XMLID_324_">
				<line id="XMLID_326_" class="st10" x1="527.3" y1="32.6" x2="518.8" y2="32.6"/>
				<line id="XMLID_325_" class="st10" x1="494.3" y1="32.6" x2="485.7" y2="32.6"/>
			</g>
		</g>
		<g id="XMLID_316_">
			<g id="XMLID_320_">
				<line id="XMLID_322_" class="st10" x1="521.2" y1="17.9" x2="515.2" y2="24"/>
				<line id="XMLID_321_" class="st10" x1="497.8" y1="41.3" x2="491.8" y2="47.3"/>
			</g>
			<g id="XMLID_317_">
				<line id="XMLID_319_" class="st10" x1="521.2" y1="47.3" x2="515.2" y2="41.3"/>
				<line id="XMLID_318_" class="st10" x1="497.8" y1="24" x2="491.8" y2="17.9"/>
			</g>
		</g>
	</g>
	<g id="XMLID_300_">
		<g id="XMLID_308_">
			<g id="XMLID_312_">
				<line id="XMLID_314_" class="st3" x1="84" y1="235" x2="84" y2="241.2"/>
				<line id="XMLID_313_" class="st3" x1="84" y1="258.8" x2="84" y2="265"/>
			</g>
			<g id="XMLID_309_">
				<line id="XMLID_311_" class="st3" x1="99" y1="250" x2="92.9" y2="250"/>
				<line id="XMLID_310_" class="st3" x1="75.2" y1="250" x2="69" y2="250"/>
			</g>
		</g>
		<g id="XMLID_301_">
			<g id="XMLID_305_">
				<line id="XMLID_307_" class="st3" x1="94.6" y1="239.4" x2="90.3" y2="243.8"/>
				<line id="XMLID_306_" class="st3" x1="77.8" y1="256.3" x2="73.4" y2="260.6"/>
			</g>
			<g id="XMLID_302_">
				<line id="XMLID_304_" class="st3" x1="94.6" y1="260.6" x2="90.3" y2="256.3"/>
				<line id="XMLID_303_" class="st3" x1="77.8" y1="243.8" x2="73.4" y2="239.4"/>
			</g>
		</g>
	</g>
	<g id="XMLID_87_">
		<g id="XMLID_293_">
			<g id="XMLID_297_">
				<line id="XMLID_299_" class="st11" x1="199.8" y1="65.8" x2="199.8" y2="71.1"/>
				<line id="XMLID_298_" class="st11" x1="199.8" y1="86.2" x2="199.8" y2="91.4"/>
			</g>
			<g id="XMLID_294_">
				<line id="XMLID_296_" class="st11" x1="212.6" y1="78.6" x2="207.3" y2="78.6"/>
				<line id="XMLID_295_" class="st11" x1="192.2" y1="78.6" x2="187" y2="78.6"/>
			</g>
		</g>
		<g id="XMLID_89_">
			<g id="XMLID_270_">
				<line id="XMLID_292_" class="st11" x1="208.8" y1="69.6" x2="205.1" y2="73.3"/>
				<line id="XMLID_289_" class="st11" x1="194.4" y1="84" x2="190.7" y2="87.7"/>
			</g>
			<g id="XMLID_266_">
				<line id="XMLID_269_" class="st11" x1="208.8" y1="87.7" x2="205.1" y2="84"/>
				<line id="XMLID_268_" class="st11" x1="194.4" y1="73.3" x2="190.7" y2="69.6"/>
			</g>
		</g>
	</g>
</g>
<line id="XMLID_267_" class="st12" x1="50.1" y1="532.1" x2="732.6" y2="532.1"/>
<g id="XMLID_194_">
	<path id="XMLID_192_" class="st13" d="M119.7,413.7c-14.7,9-21.2,25.1,0,31c44.8-0.9,66.5-1,66.5-1v-18.1
		C186.2,425.6,134.4,404.7,119.7,413.7z"/>
	<path id="XMLID_191_" class="st14" d="M119.7,413.7c-14.7,9-21.2,25.1,0,31c44.8-0.9,66.5-1,66.5-1v-18.1
		C186.2,425.6,134.4,404.7,119.7,413.7z"/>
</g>
<g id="XMLID_195_">
	<path id="XMLID_202_" class="st13" d="M119.7,413.7c-14.7,9-21.2,25.1,0,31c44.8-0.9,66.5-1,66.5-1v-18.1
		C186.2,425.6,134.4,404.7,119.7,413.7z"/>
	<path id="XMLID_221_" class="st15" d="M121.3,420.8c13.2-8,56.3,8,65,11.3v-6.5c0,0-51.8-20.9-66.5-11.9
		c-10.4,6.4-16.7,16.3-11.9,23.7C108.7,431.5,114,425.2,121.3,420.8z"/>
	<path id="XMLID_201_" class="st14" d="M119.7,413.7c-14.7,9-21.2,25.1,0,31c44.8-0.9,66.5-1,66.5-1v-18.1
		C186.2,425.6,134.4,404.7,119.7,413.7z"/>
</g>
<g id="XMLID_197_">
	<path id="XMLID_200_" class="st13" d="M291.9,413.7c14.7,9,21.2,25.1,0,31c-44.8-0.9-66.5-1-66.5-1v-18.1
		C225.4,425.6,277.3,404.7,291.9,413.7z"/>
	<path id="XMLID_222_" class="st15" d="M291.9,419.8c6.7,4.1,11.6,9.6,13.1,15c2.2-7-3.8-15.5-13.1-21.2
		c-14.7-9-66.5,11.9-66.5,11.9v6.2C225.4,431.8,277.3,410.9,291.9,419.8z"/>
	<path id="XMLID_199_" class="st14" d="M291.9,413.7c14.7,9,21.2,25.1,0,31c-44.8-0.9-66.5-1-66.5-1v-18.1
		C225.4,425.6,277.3,404.7,291.9,413.7z"/>
</g>
<g id="XMLID_193_">
	<path id="XMLID_190_" class="st13" d="M220.6,450.2c-9.9,2.2-20.2,2.2-30.1,0c-6.8-1.9-12-9.7-12-15.9l0,0c0-6.2,5.2-14.1,12-15.9
		c9.9-2.2,20.2-2.2,30.1,0c6.8,1.9,12,9.7,12,15.9l0,0C232.5,440.4,227.3,448.3,220.6,450.2z"/>
	<path id="XMLID_205_" class="st15" d="M190.4,426.1c9.9-2.2,20.2-2.2,30.1,0c5.4,1.5,9.8,6.8,11.4,12c0.4-1.3,0.6-2.7,0.6-3.9
		c0-6.2-5.2-14.1-12-15.9c-9.9-2.2-20.2-2.2-30.1,0c-6.8,1.9-12,9.7-12,15.9c0,1.3,0.2,2.6,0.6,3.9
		C180.7,432.9,185.1,427.6,190.4,426.1z"/>
	<path id="XMLID_189_" class="st14" d="M220.6,450.2c-9.9,2.2-20.2,2.2-30.1,0c-6.8-1.9-12-9.7-12-15.9l0,0c0-6.2,5.2-14.1,12-15.9
		c9.9-2.2,20.2-2.2,30.1,0c6.8,1.9,12,9.7,12,15.9l0,0C232.5,440.4,227.3,448.3,220.6,450.2z"/>
</g>
<g id="XMLID_188_">
	<rect id="XMLID_187_" x="98.6" y="446.4" class="st15" width="178.3" height="85.2"/>
	<g id="XMLID_11_">
		<polygon id="XMLID_243_" class="st16" points="276.9,465.5 210.7,531.6 234.2,531.6 276.9,488.9 		"/>
		<polygon id="XMLID_244_" class="st16" points="271.6,446.4 250,446.4 164.7,531.6 188.2,531.6 272.5,447.3 		"/>
		<polygon id="XMLID_245_" class="st16" points="204,446.4 118.7,531.6 142.2,531.6 227.4,446.4 		"/>
		<polygon id="XMLID_246_" class="st16" points="181.4,446.4 158,446.4 98.6,505.7 98.6,523.6 101.4,526.4 		"/>
		<polygon id="XMLID_247_" class="st16" points="112,446.4 98.6,459.7 98.6,483.2 135.4,446.4 		"/>
	</g>
	<rect id="XMLID_207_" x="98.6" y="446.4" class="st17" width="178.3" height="12.3"/>
	<rect id="XMLID_206_" x="98.6" y="446.4" class="st18" width="15.5" height="85.2"/>
	<rect id="XMLID_215_" x="243.8" y="446.4" class="st18" width="15.5" height="85.2"/>
	<rect id="XMLID_184_" x="98.6" y="446.4" class="st12" width="178.3" height="85.2"/>
</g>
<path id="XMLID_166_" class="st19" d="M494.1,200.4c0,0,2.6,10.1-11.9,19c31.5,6.5,51.1,21.7,54.3,25.3c6.2,0,6.2,0,6.2,0
	S534.3,204.4,494.1,200.4z"/>
<path id="XMLID_162_" class="st20" d="M494.1,200.4c0,0,2.6,10.1-11.9,19c31.5,6.5,51.1,21.7,54.3,25.3c6.2,0,6.2,0,6.2,0
	S534.3,204.4,494.1,200.4z"/>
<path id="XMLID_170_" class="st19" d="M604,206.8c0,0-4,9.6,9.1,20.5c-32.1,2-53.7,14.2-57.3,17.4c-6.2-0.9-6.2-0.9-6.2-0.9
	S563.6,205.1,604,206.8z"/>
<path id="XMLID_168_" class="st20" d="M604,206.8c0,0-4,9.6,9.1,20.5c-32.1,2-53.7,14.2-57.3,17.4c-6.2-0.9-6.2-0.9-6.2-0.9
	S563.6,205.1,604,206.8z"/>
<g id="XMLID_160_">
	<path id="XMLID_154_" class="st21" d="M549.6,239.3c0,0,9.2-20.5,29.2-20.5c19.1,0.8,32.2,31.4,16.8,33.9
		c-15.5,2.5-41.9,3.3-41.9,3.3S557.5,247.2,549.6,239.3z"/>
	<path id="XMLID_152_" class="st20" d="M549.6,239.3c0,0,9.2-20.5,29.2-20.5c19.1,0.8,32.2,31.4,16.8,33.9
		c-15.5,2.5-41.9,3.3-41.9,3.3S557.5,247.2,549.6,239.3z"/>
</g>
<g id="XMLID_156_">
	<path id="XMLID_159_" class="st21" d="M539.1,239.3c0,0-9.2-20.5-29.2-20.5c-19.1,0.8-32.2,31.4-16.8,33.9
		c15.5,2.5,41.9,3.3,41.9,3.3S531.2,247.2,539.1,239.3z"/>
	<path id="XMLID_158_" class="st20" d="M539.1,239.3c0,0-9.2-20.5-29.2-20.5c-19.1,0.8-32.2,31.4-16.8,33.9
		c15.5,2.5,41.9,3.3,41.9,3.3S531.2,247.2,539.1,239.3z"/>
</g>
<path id="XMLID_178_" class="st22" d="M533.1,243.2c0,0,0-4.9-10.3-6.8"/>
<path id="XMLID_175_" class="st22" d="M534.1,248.1c0,0-11.1-8.5-28.8-8"/>
<path id="XMLID_5_" class="st23" d="M427.8,531.6H264.1c-3.3,0-6-2.7-6-6V171.4h175.7v354.2C433.8,529,431.1,531.6,427.8,531.6z"/>
<g id="XMLID_26_">
	<g>
		<g id="XMLID_391_">
			<rect x="258.1" y="171.4" class="st24" width="175.7" height="16.7"/>
		</g>
		<g id="XMLID_390_">
			<rect x="258.1" y="338.8" class="st24" width="175.7" height="16.7"/>
		</g>
		<g id="XMLID_389_">
			<rect x="345.7" y="171.4" class="st24" width="24.2" height="360.2"/>
		</g>
		<g id="XMLID_388_">
			<path class="st24" d="M412.5,531.6h-24.2V408.7c0-7.1,5.7-12.8,12.8-12.8h11.4V531.6z"/>
		</g>
		<g id="XMLID_387_">
			<rect x="258.7" y="171.4" class="st24" width="12.1" height="360.2"/>
		</g>
	</g>
</g>
<path id="XMLID_1_" class="st12" d="M427.8,531.6H264.1c-3.3,0-6-2.7-6-6V171.4h175.7v354.2C433.8,529,431.1,531.6,427.8,531.6z"/>
<path id="XMLID_8_" class="st23" d="M440,127.4H252c-3.3,0-6,2.7-6,6v32c0,3.3,2.7,6,6,6h188c3.3,0,6-2.7,6-6v-32
	C446,130.1,443.3,127.4,440,127.4z"/>
<g id="XMLID_91_">
	<g id="XMLID_124_">
		<g id="XMLID_127_">
			<path id="XMLID_128_" class="st23" d="M351.2,118.9c0,0,16.7-31.5,47-34.2c22.3-2,27.3,52.2,21.3,58.3
				c-9.6,9.6-26.6,4.2-58.5-2.6C351.2,118.9,351.2,118.9,351.2,118.9z"/>
		</g>
		<g id="XMLID_125_">
			<path id="XMLID_126_" class="st23" d="M336.1,118.9c0,0-16.7-31.5-47-34.2c-22.3-2-27.3,52.2-21.3,58.3
				c9.6,9.6,26.6,4.2,58.5-2.6C336.1,118.9,336.1,118.9,336.1,118.9z"/>
		</g>
	</g>
</g>
<rect id="XMLID_49_" x="331.3" y="127.4" class="st23" width="45.3" height="44"/>
<g id="XMLID_6_">
	<g>
		<g id="XMLID_365_">
			<path class="st24" d="M440,159.4H252c-3.3,0-6,2.7-6,6l0,0c0,3.3,2.7,6,6,6h188c3.3,0,6-2.7,6-6l0,0
				C446,162.1,443.3,159.4,440,159.4z"/>
		</g>
		<g id="XMLID_364_">
			<rect x="248.1" y="127.4" class="st24" width="10" height="44"/>
		</g>
	</g>
</g>
<path id="XMLID_34_" class="st25" d="M440,127.4H252c-3.3,0-6,2.7-6,6l0,0c0,3.3,2.7,6,6,6h188c3.3,0,6-2.7,6-6l0,0
	C446,130.1,443.3,127.4,440,127.4z"/>
<rect id="XMLID_10_" x="331" y="171.4" class="st15" width="30" height="360.2"/>
<rect id="XMLID_9_" x="331" y="171.4" class="st14" width="30" height="360.2"/>
<path id="XMLID_7_" class="st12" d="M440,127.4H252c-3.3,0-6,2.7-6,6v32c0,3.3,2.7,6,6,6h188c3.3,0,6-2.7,6-6v-32
	C446,130.1,443.3,127.4,440,127.4z"/>
<rect id="XMLID_20_" x="323.3" y="127.4" class="st15" width="45.3" height="44"/>
<path id="XMLID_50_" class="st26" d="M346,156.6L346,156.6c-12.5,0-22.7-10.1-22.7-22.7v-8.2c0-12.5,10.1-22.7,22.7-22.7l0,0
	c12.5,0,22.7,10.1,22.7,22.7v8.3C368.6,146.5,358.5,156.6,346,156.6z"/>
<rect id="XMLID_19_" x="323.3" y="127.4" class="st14" width="45.3" height="44"/>
<g id="XMLID_25_">
	<path id="XMLID_17_" class="st27" d="M351.2,109.9c0,0,16.7-31.5,47-34.2c22.3-2,27.3,52.2,21.3,58.3c-9.6,9.6-26.6,4.2-58.5-2.6
		C351.2,109.9,351.2,109.9,351.2,109.9z"/>
	<path id="XMLID_42_" class="st26" d="M375.6,125v-8.3c0-9.6-4.6-18.1-11.6-23.5c-8.4,8.4-12.8,16.7-12.8,16.7s0,0,9.8,21.5
		c4.7,1,9.1,2,13.2,2.9C375.1,131.3,375.6,128.2,375.6,125z"/>
	<path id="XMLID_43_" class="st15" d="M400,82.5c9.5-0.9,15.9,8.5,19.6,20c-3.2-14.3-10.1-27.8-21.4-26.8c-30.3,2.7-47,34.2-47,34.2
		s0,0,2.5,5.6C357.1,109.7,373.3,84.9,400,82.5z"/>
	<path id="XMLID_16_" class="st14" d="M351.2,109.9c0,0,16.7-31.5,47-34.2c22.3-2,27.3,52.2,21.3,58.3c-9.6,9.6-26.6,4.2-58.5-2.6
		C351.2,109.9,351.2,109.9,351.2,109.9z"/>
</g>
<path id="XMLID_56_" class="st22" d="M364.1,113.6c0,0,11.7-10.4,25.1-12.4"/>
<path id="XMLID_62_" class="st22" d="M365.7,113.1c0,0,14.8-5.2,27.9-2.2"/>
<g id="XMLID_18_">
	<path id="XMLID_24_" class="st27" d="M336.1,109.9c0,0-16.7-31.5-47-34.2c-22.3-2-27.3,52.2-21.3,58.3c9.6,9.6,26.6,4.2,58.5-2.6
		C336.1,109.9,336.1,109.9,336.1,109.9z"/>
	<path id="XMLID_40_" class="st26" d="M316.3,116.7v8.3c0,2.9,0.4,5.7,1.2,8.4c2.8-0.6,5.7-1.3,8.8-1.9c9.8-21.5,9.8-21.5,9.8-21.5
		s-3.7-6.9-10.7-14.5C319.8,100.7,316.3,108.3,316.3,116.7z"/>
	<path id="XMLID_208_" class="st15" d="M287.9,83.5c25.4,2.3,41.3,24.8,45.7,32c2.5-5.6,2.5-5.6,2.5-5.6s-16.7-31.5-47-34.2
		c-13.8-1.2-21,19.2-23,36.3C269.1,97.1,276.1,82.4,287.9,83.5z"/>
	<path id="XMLID_21_" class="st14" d="M336.1,109.9c0,0-16.7-31.5-47-34.2c-22.3-2-27.3,52.2-21.3,58.3c9.6,9.6,26.6,4.2,58.5-2.6
		C336.1,109.9,336.1,109.9,336.1,109.9z"/>
</g>
<path id="XMLID_58_" class="st22" d="M299.5,112.9c0,0,15.6-1.8,27.7,4.2"/>
<path id="XMLID_64_" class="st22" d="M302.8,101.9c0,0,15.2,3.6,24.7,13.3"/>
<rect id="XMLID_13_" x="258.1" y="317.2" class="st28" width="175.7" height="30"/>
<rect id="XMLID_27_" x="258.1" y="317.2" class="st29" width="12.6" height="30"/>
<rect id="XMLID_12_" x="258.1" y="317.2" class="st14" width="175.7" height="30"/>
<path id="XMLID_15_" class="st27" d="M346,147.6L346,147.6c-12.5,0-22.7-10.1-22.7-22.7v-8.2c0-12.5,10.1-22.7,22.7-22.7l0,0
	c12.5,0,22.7,10.1,22.7,22.7v8.3C368.6,137.5,358.5,147.6,346,147.6z"/>
<path id="XMLID_224_" class="st15" d="M346,94L346,94c-12.5,0-22.7,10.1-22.7,22.7v6.6c0-12.5,10.1-22.7,22.7-22.7l0,0
	c12.5,0,22.7,10.1,22.7,22.7v-6.6C368.6,104.2,358.5,94,346,94z"/>
<path id="XMLID_14_" class="st14" d="M346,147.6L346,147.6c-12.5,0-22.7-10.1-22.7-22.7v-8.2c0-12.5,10.1-22.7,22.7-22.7l0,0
	c12.5,0,22.7,10.1,22.7,22.7v8.3C368.6,137.5,358.5,147.6,346,147.6z"/>
<line id="XMLID_31_" class="st22" x1="340.1" y1="480.6" x2="340.1" y2="531.6"/>
<line id="XMLID_30_" class="st22" x1="350.4" y1="174.6" x2="350.4" y2="193"/>
<line id="XMLID_67_" class="st22" x1="346" y1="174.6" x2="346" y2="183.8"/>
<path id="XMLID_47_" class="st22" d="M350.4,531.6"/>
<path id="XMLID_29_" class="st22" d="M350.4,514.6"/>
<line id="XMLID_45_" class="st22" x1="351.8" y1="506.9" x2="351.8" y2="531.6"/>
<line id="XMLID_59_" class="st22" x1="258.1" y1="327.6" x2="270.8" y2="327.6"/>
<line id="XMLID_60_" class="st22" x1="414.8" y1="336.5" x2="437.1" y2="336.5"/>
<line id="XMLID_61_" class="st22" x1="400.4" y1="328.6" x2="433" y2="328.6"/>
<path id="XMLID_65_" class="st30" d="M631.3,531.6H406.4c-3.3,0-6-2.7-6-6V407c0-3.3,2.7-6,6-6h224.9c3.3,0,6,2.7,6,6v118.7
	C637.3,529,634.6,531.6,631.3,531.6z"/>
<path id="XMLID_145_" class="st31" d="M631.3,400H417.1h-10.6h-6v6v2.4v122.2h16.6v-108c0-4.5,3.7-8.2,8.2-8.2h206c3.3,0,6-2.7,6-6
	V406C637.3,402.7,634.6,400,631.3,400z"/>
<g id="XMLID_97_" class="st32">
	<g id="XMLID_75_">
		<circle id="XMLID_73_" class="st19" cx="417.1" cy="406.8" r="8.6"/>
		<circle id="XMLID_79_" class="st19" cx="451" cy="406.8" r="8.6"/>
		<circle id="XMLID_85_" class="st19" cx="484.9" cy="406.8" r="8.6"/>
		<circle id="XMLID_88_" class="st19" cx="518.9" cy="406.8" r="8.6"/>
		<circle id="XMLID_90_" class="st19" cx="552.8" cy="406.8" r="8.6"/>
		<circle id="XMLID_93_" class="st19" cx="586.8" cy="406.8" r="8.6"/>
		<circle id="XMLID_95_" class="st19" cx="620.7" cy="406.8" r="8.6"/>
	</g>
	<g id="XMLID_99_">
		<circle id="XMLID_106_" class="st19" cx="434" cy="430.7" r="8.6"/>
		<circle id="XMLID_105_" class="st19" cx="468" cy="430.7" r="8.6"/>
		<circle id="XMLID_104_" class="st19" cx="501.9" cy="430.7" r="8.6"/>
		<circle id="XMLID_103_" class="st19" cx="535.8" cy="430.7" r="8.6"/>
		<circle id="XMLID_102_" class="st19" cx="569.8" cy="430.7" r="8.6"/>
		<circle id="XMLID_101_" class="st19" cx="603.7" cy="430.7" r="8.6"/>
	</g>
	<g id="XMLID_113_">
		<circle id="XMLID_121_" class="st19" cx="417.1" cy="455" r="8.6"/>
		<circle id="XMLID_120_" class="st19" cx="451" cy="455" r="8.6"/>
		<circle id="XMLID_119_" class="st19" cx="484.9" cy="455" r="8.6"/>
		<circle id="XMLID_117_" class="st19" cx="518.9" cy="455" r="8.6"/>
		<circle id="XMLID_116_" class="st19" cx="552.8" cy="455" r="8.6"/>
		<circle id="XMLID_115_" class="st19" cx="586.8" cy="455" r="8.6"/>
		<circle id="XMLID_114_" class="st19" cx="620.7" cy="455" r="8.6"/>
	</g>
	<g id="XMLID_100_">
		<circle id="XMLID_112_" class="st19" cx="434" cy="478.9" r="8.6"/>
		<circle id="XMLID_111_" class="st19" cx="468" cy="478.9" r="8.6"/>
		<circle id="XMLID_110_" class="st19" cx="501.9" cy="478.9" r="8.6"/>
		<circle id="XMLID_109_" class="st19" cx="535.8" cy="478.9" r="8.6"/>
		<circle id="XMLID_108_" class="st19" cx="569.8" cy="478.9" r="8.6"/>
		<circle id="XMLID_107_" class="st19" cx="603.7" cy="478.9" r="8.6"/>
	</g>
	<g id="XMLID_134_">
		<circle id="XMLID_141_" class="st19" cx="417.1" cy="502" r="8.6"/>
		<circle id="XMLID_140_" class="st19" cx="451" cy="502" r="8.6"/>
		<circle id="XMLID_139_" class="st19" cx="484.9" cy="502" r="8.6"/>
		<circle id="XMLID_138_" class="st19" cx="518.9" cy="502" r="8.6"/>
		<circle id="XMLID_137_" class="st19" cx="552.8" cy="502" r="8.6"/>
		<circle id="XMLID_136_" class="st19" cx="586.8" cy="502" r="8.6"/>
		<circle id="XMLID_135_" class="st19" cx="620.7" cy="502" r="8.6"/>
	</g>
	<g id="XMLID_122_">
		<circle id="XMLID_133_" class="st19" cx="434" cy="525.8" r="8.6"/>
		<circle id="XMLID_132_" class="st19" cx="468" cy="525.8" r="8.6"/>
		<circle id="XMLID_131_" class="st19" cx="501.9" cy="525.8" r="8.6"/>
		<circle id="XMLID_130_" class="st19" cx="535.8" cy="525.8" r="8.6"/>
		<circle id="XMLID_129_" class="st19" cx="569.8" cy="525.8" r="8.6"/>
		<circle id="XMLID_123_" class="st19" cx="603.7" cy="525.8" r="8.6"/>
	</g>
</g>
<path id="XMLID_63_" class="st12" d="M631.3,531.6H406.4c-3.3,0-6-2.7-6-6V407c0-3.3,2.7-6,6-6h224.9c3.3,0,6,2.7,6,6v118.7
	C637.3,529,634.6,531.6,631.3,531.6z"/>
<rect id="XMLID_143_" x="472.5" y="254.5" class="st16" width="146.4" height="146.5"/>
<g id="XMLID_183_">
	<g>
		<rect id="XMLID_372_" x="549.6" y="256" class="st33" width="12.2" height="142.2"/>
		<rect id="XMLID_371_" x="474.1" y="256" class="st33" width="144.2" height="8"/>
		<rect id="XMLID_370_" x="474.1" y="337.8" class="st33" width="144.2" height="8"/>
		<rect id="XMLID_369_" x="474.1" y="260" class="st33" width="8.1" height="138.2"/>
	</g>
</g>
<rect id="XMLID_146_" x="535.7" y="254.4" class="st21" width="20" height="146.5"/>
<rect id="XMLID_144_" x="535.7" y="254.4" class="st20" width="20" height="146.5"/>
<rect id="XMLID_148_" x="471.9" y="319.3" class="st21" width="146.4" height="20"/>
<rect id="XMLID_147_" x="471.9" y="319.3" class="st20" width="146.4" height="20"/>
<rect id="XMLID_142_" x="472.5" y="254.5" class="st12" width="146.4" height="146.5"/>
<path id="XMLID_150_" class="st19" d="M529.7,252.1c0-8.1,6.6-14.7,14.7-14.7s14.7,6.6,14.7,14.7H529.7z"/>
<path id="XMLID_149_" class="st20" d="M529.7,252.1c0-8.1,6.6-14.7,14.7-14.7s14.7,6.6,14.7,14.7H529.7z"/>
<line id="XMLID_157_" class="st22" x1="555.7" y1="368.8" x2="555.7" y2="401"/>
<line id="XMLID_161_" class="st22" x1="561.4" y1="384.9" x2="561.4" y2="401"/>
<line id="XMLID_164_" class="st22" x1="594.4" y1="329.3" x2="618.8" y2="329.3"/>
<line id="XMLID_167_" class="st22" x1="487.1" y1="327.6" x2="501.9" y2="327.6"/>
<path id="XMLID_172_" class="st22" d="M556.7,243.2c0,0,2.2-4.2,10.1-8.4"/>
<path id="XMLID_173_" class="st22" d="M555.7,248.1c0,0,12.8-8.9,25.7-9.1"/>
<g id="XMLID_265_">
	<g id="XMLID_258_">
		
			<rect id="XMLID_78_" x="702.7" y="445.7" transform="matrix(0.4941 -0.8694 0.8694 0.4941 -32.3886 848.5937)" class="st12" width="20.6" height="12.8"/>
		<circle id="XMLID_33_" class="st16" cx="689.7" cy="493" r="37.8"/>
		<path id="XMLID_272_" class="st34" d="M661.9,484.1c10.3-18.2,33.4-24.5,51.6-14.2c4.9,2.8,8.9,6.5,12,10.8
			c-2.9-8.4-8.7-15.9-17.1-20.6c-18.2-10.3-41.3-4-51.6,14.2c-7.5,13.3-6.2,29.2,2.2,40.8C655.6,505.2,656.3,493.9,661.9,484.1z"/>
		<circle id="XMLID_4_" class="st12" cx="689.7" cy="493" r="37.8"/>
		<line id="XMLID_263_" class="st12" x1="704.5" y1="435.5" x2="730.6" y2="450.3"/>
		
			<ellipse id="XMLID_262_" transform="matrix(0.874 -0.4859 0.4859 0.874 -143.8593 395.707)" class="st19" cx="691.1" cy="475.3" rx="7.3" ry="4.6"/>
		
			<ellipse id="XMLID_264_" transform="matrix(0.4941 -0.8694 0.8694 0.4941 -75.7433 833.3852)" class="st19" cx="678.2" cy="481.8" rx="2.8" ry="2.5"/>
	</g>
	<g id="XMLID_260_">
		<g id="XMLID_76_">
			<circle id="XMLID_44_" class="st15" cx="671.8" cy="481.4" r="7.3"/>
			<circle id="XMLID_35_" class="st20" cx="671.8" cy="481.4" r="7.3"/>
		</g>
		<g id="XMLID_220_">
			<circle id="XMLID_255_" class="st15" cx="686.8" cy="498.3" r="7.3"/>
			<circle id="XMLID_227_" class="st20" cx="686.8" cy="498.3" r="7.3"/>
		</g>
		<g id="XMLID_257_">
			<circle id="XMLID_261_" class="st15" cx="708" cy="503.9" r="7.3"/>
			<circle id="XMLID_259_" class="st20" cx="708" cy="503.9" r="7.3"/>
		</g>
	</g>
	<ellipse id="XMLID_290_" class="st12" cx="717.8" cy="443" rx="5.5" ry="4.5"/>
</g>
</svg>
